<mxfile host="app.diagrams.net" agent="Mozilla/5.0 (Windows NT 10.0; Win64; x64) AppleWebKit/537.36 (KHTML, like Gecko) Chrome/131.0.0.0 Safari/537.36" version="24.8.6">
  <diagram id="R2lEEEUBdFMjLlhIrx00" name="Page-1">
    <mxGraphModel dx="951" dy="578" grid="1" gridSize="10" guides="1" tooltips="1" connect="1" arrows="1" fold="1" page="1" pageScale="1" pageWidth="850" pageHeight="1100" math="0" shadow="0" extFonts="Permanent Marker^https://fonts.googleapis.com/css?family=Permanent+Marker">
      <root>
        <mxCell id="0" />
        <mxCell id="1" parent="0" />
        <mxCell id="G1eCkZ83PE1305hmKZL2-1" value="" style="shape=image;verticalLabelPosition=bottom;labelBackgroundColor=default;verticalAlign=top;aspect=fixed;imageAspect=0;image=data:image/png,iVBORw0KGgoAAAANSUhEUgAAAK8AAAC/CAYAAACIRIzuAAAAAXNSR0IArs4c6QAAAARnQU1BAACxjwv8YQUAAAAJcEhZcwAADsMAAA7DAcdvqGQAAA49SURBVHhe7Z1PaBtXHsd/TmlpKGxDKWxPC1GkpoiUQiFeavWwPdjB1sVeiC57iGFTO75EOiQsgVy2BHJwD3Yujn2yb4t9iJZii8SHnpSCW3xZVTSWYuhetkf3Lz001b6/oxnpafTH9mjezPcD02jezLx50nzn934zfV+/kQaDALCQM+pfAKxDRN6PP/5YrQJgD454P/30U1UEQPi5desW0gZgLxAvsBaIF1gLxAusBeIF1uIj3kNamThH5861LhO0cqh2EexSwVjeL7qe5jJxvApPmJP6ngYOV2iC113YVQXHZ7dwSm0NEQNE3j268/4JC0tcvKu0rlaD5nBlQtwsJ6idPmBB4sYd2hu9T/tL47LkBNozvrRP90fZtbqxws4QTXoQ7yjd3z+ioyO+8B9Elu7decBiEWeclsS2J7SQEAV9wiLa++zi8Y/8Aoq6+LJFM2L76fP8mTh7F477PTuw+4DusNPP3l4gXW1v7elGgq7MsIu1d4ceDOWmPH36jLwJWniyRbPi8zptix9Fd6cFKWbdBU6wO363ICKI0305666osrutIu4sbT1pXkAulgVHJa0phToXx30+WaDSHXVOY3t0zyH3vapC/vpVtZ/rmBXR/fLztXxPQUu7XKFSdtvNpVMU3d3mJ5+lrAi6/bSHocv5UmDb3N+bkbgyw0IPq0deqMgxQNpwgS6q6Futq1/JyCO6oa8CTzVuTNCEs84vjLwAh/WqLJjNMrma4AJpTSnW6apHRL3gbo+75/CBRa073hO7MLRr/aq8KdhN4jqVD4ckvv7oRfar9oC7PVy4usfirLNtrQE7kaQ0/7daVzd2tBhAvE3SSZ/+k/2QMzzd2L8v7n5nnaUDMnL3xuHKohSIk1Lo1EVH/h5pO3+V6oe8JzmiLdWg2S223RP9dcq01HZjOe2a3WLb2T7qe+49eky7+obkvYlKg1Q628Jz8mYIvbfnwuNHUrj6/MbftRloosgA4tU/+Chd9AsXozN0hf/q+u5n/zVpPZGUW1nf5hsJR2euqIuocjmGf+RvQbennwvqHOMDi7ai23ZFwQsLt5WQeA/h7cq99CkuQ3tGnYsQbaGa6FO8rq6ylwvbCxcuysjML7Q7MWTdYsF1xfeePVefDunxIykTT+Tfe8ZuK05rNDtlnMinFhEp9cOdjqIsbTI+NSVI3LtO2/un+bsYvvfhYxI/VTrpit7RoQfxyldj8sFD53is+3ro7s6OQWKBHupXGDqKqUjGO9+EjmLOtvdVbqcecpzIrqPcIlUHjEDOA5Ja90M/DHnazBZ+/+lXXXzRuW8zQnoZz/JvZ06B/NrTfn7Dq8bnz0RvMCufBiNH/2mDyD1P9nVRYuEJHelEz4WMrDyKteZzPJfUeeg43dTiZ8xuPez7Fdv4TZWX9wO76Z7ofL4bLDo/6fSDjd8UOfz6YlOkPbXHfdMzRu9vOa8xJYe0ssjkzK7XzWhqF+N5QwFLkcSbA56CmJ/susNfA4owL29slt+xqM8f8E74vXRIwHjesMCjOM+R+xJuyztmlZ+M3r8peqTxJZ5zR1O4Gk/kLRaLqhiA8DI9PS0ib5t4+QYAwsjrr79OGxsbjniJi/f69euNo6Ojxvr6uvj3OBz3eABMaF1pjXLNIucF1gLxAmvxFe/333/f8wJA0PQdeX/44Qfa39+nzz//XCwHBwf04sULtRWA4OhLvD/99BN98cW/6OnTv1GtNiOW7e2/MwFX1B59Upqn+ZL6bKC+nKHMcl2tKbocA+JDX+L95Zdf6Mcfv6GPPvofSxWIPvyQ6K23/kPfffdftcfJksyXqZxPqjUAvPQl3jNnztBLL71Kv/32Mn3yCdHly0S//36WXn75FbVHF+rLlBkZoRG2eKNnieZHMtQaZJtRtk7LGXUc/j8KUPQl3jfffJPee+86ffPNX+nZs1fps8/O0Wuv/ZOJ+C9qD3/q21XK1Rr83TKtTqpCIdwiTTfK1CnI1pevUfWuPG6a1lQpiDt9P7AlEgn6+ec/07ff/kGV9E4yf5voGougmWUWSyVrU/coXVslR8sGalWidEp+npyekx9A7OlbvG6++uqP9M47GXrllR7TBkpSvswi6AbRosoR5nbYyjVDyuAilSaq1uTnUhGRF0iOJd7x8W/pyy//Tb/++qsq8Ye/PeB560hqk9JZnSNwQd+laqo1D26SzN8lmpI5b5EQeYFkIPG+++679PXXf6L9/WuUzd6gs2fPqi3+8LcHPG9t6Px2clXlvpO02thxBCoWnlp4tqtceVWXgbgzkHgvX75MY2MPaGbmH/TGG2+o0uPSFKhYynkWkwHojK94+RC0TssHH3xA58+fd9YBCJpj5bwADBOIF1gLxAusBTYgYA382Qo2IGAdsAGBSAHxAmuBeIG1QLzAWiBeYC0Wi7dE8zCzxZrAxVuad40ac9l7RkbmmRzFDs2hkfoz+zczzxZnP37cFK2tTcl6nO0ZymRUPVzcrkHvDm11MVz2JGegPCubX2aLLmPHedrJcL6LqwwER7DiZQK4l645o8Zo+Rpt5tT6DtE9nxHpTytp2mD71ZYqVCzxMcA7NDe344w+k9vLtJHj21lB/YAolzWOTPPWxQqSeSrzNvCy3CYtKiVWClWaVmWp4rTcro9xf5cubQenQ6DiLRUrTE9NOXF7j7PutksYGFNCTL59SRa04GzP5ogOWEzfrroGvHtpr4v76GQUTRWeqjKiS0u3hT2J7zc3LQcR62PqBxV6WkjJyDsFd8cwCFS8XJ+b280I5Vl3GdUqTHycgSw/ySylq4u0WE1TB+22UV8uUloZQ2tLY6rUHyHoHXkMX2DRD55AxZvMb1BuU0UrlkeSe/0e68q5ACan6ZKKaP6WnxSlKyrnVSWSJGXTFaqkzSmDieTbRIVUe+T1ZfI2pe/JY/iCZ8chwKJG5MY27MyNNZZq4lODyb/Bv6ZYxpYaohhYRwzGNsi3F1N0V/0NCFiLokzExKus9XBoxoKIiRfECYgXWAvEC6wFNiBgDbABASuJwasyECcgXmAtEC+wFogXWAvE240SZh8KKxaLFzaguBO4eIduA2J0bYOrzD37EGw/4SJY8TKRDd0G1EMbjLMPuY+D7ScUBCreMNiAemmDafYh2H7CR6DiDYMNqJc2KA0LdBtg+wkfgYo3DDagXtpgnH0Itp/wwaIIbEAg9MRgbANsQHEiYuKFDShOREy8IE5AvMBaIF5gLbABAWuADQhYSQxelYE4AfECa4F4gbVAvMBaQi/e+nKGMhg7CwyEXrzJfBnDD4GRYMXr2HWkjabdVuOy37D9tAVIDj802HWc+tx1gLgQeOSVdp1VmjTYaoz2GwXfZrIMtc3sA2JD4OLVdh2TrcZkv9GY7DqcbvYgEF2GlvOabDUm+43GZNcB8WZ4D2wGW43RfqPw2He0ZQjEGxb1Qjm2YWeOGiwyAyAI/9gG9hCnI/EU7RAMEcCPcIl3ctXJgWHlAd0Il3gB6AOIF1gLxAusBTYgYA2wAQErCf+rMgD6AOIF1gLxAmuBeIG1hE+8zuDzkwV2ougRm8gLO1H0CFa89WVl2VF/WdwdZd2fD/R+GTIGS7Yv7EQgUPHySU5yNTnwxm/czdomCWtPY+cSFRbNUoKdCAQq3mT+NtE1Ft06zI+mmbur/oL55HTHWSlgJwIB57zqL5dvEC2qiGea+WdNh75SkSpd7D6wE8WXYNMG9sQvImRqU86R1mHmnzm2JiMp0d1uD1mwE8UXFq1CPrbheDP6wE4UDSwd2zDAjD7sIU5HYtiJoosF4h0A2IliQTTFC2IBxAusBeIF1gIbELAG2ICAlVj6qgwAMxAvsBaIF1gLxAusJXridQadg6gzZPGWaL5npfWzbydOog4QFoIVr8cGxO04U7S2NiUHp7u2OYPVHXtOhjLufUVlbly2n6Iuaq2v5Xxsl3b7ELCJQMXrtQHxgek7NDe3I0eKJfNUVoNparlN0u4fac8pU9m9r9zkYLT9tNXXcj6DfQjYRaDi9bcBsS5dRcpU4akqa9pz/DDbfsz1aUz2IWAXAee87TYgTX25SGkVlWtLY6q0N0y2n271mexDwC6CTRtabUCUonRF5qD0NlEh1TlSuvdtjdom20/SWJ+rDoN9CFgGizqWjW04ni0I2ElExjYMYAsCkcRC8QIggXiBtUC8wFogXmAtsAEBa4ANCFhJRF6VASCBeIG1QLzAWiBeYC3hF28vth5Yf2JJDCIvrD9RJXDxtllvHKuPq0xYdtRQRW3raQPWn7gTrHg7WG9aZ+Lxm81HA+sPCFS8naw3rTPx+M3mo4H1BwQq3l6tN36z+Whg/QHBpg09Wm/8ZvPRwPoDeASyYGwDrD9xx+KxDbD+gHYsES8A7UC8wFogXmAtEC+wFtiAgDXABgSsxOJXZQC0A/ECa4F4gbVAvMBaAhUv//u8mVMYQ3ta9YJwE6h4k/nyCQ5DbNp7TrZeYAvBpg3aKOmZFUhu8mCaGYjhWHgyrB63vUfUyy0/2trDhA3bT+QZSs7rnRVIFboxzQzktvCUV2m1bXagJGVz0kZEpSJVuDsDtp9IMxTx+s8KxGm385SKFcqJeSw6k8zmiA7qVD8gsS9sP9FmKOLlUbLTrEAck52H2342t7tEzmSW0tVFWqymiesctp9oM5y0oW1WIC8mO08yv0G5TRVFRcQ2zQ7EUod0hSppNXcbbD/RhkWkIY9tgMUHdCekYxtg8QGDEQLxAjAYEC+wFogXWAvEC6wFNiBgBdwCxPG1AQEQZmADApEA4gXWAvECa4F4gbVAvMBaIF5gLRAvsBaIF1gLxAusBeIF1gLxAmuBeIG1QLzAWtqGRAIQdvSQSI94AbCFW7du0f8BUKNmJbAH3SIAAAAASUVORK5CYII=;" vertex="1" parent="1">
          <mxGeometry x="72" y="41" width="175" height="191" as="geometry" />
        </mxCell>
        <mxCell id="G1eCkZ83PE1305hmKZL2-2" value="" style="shape=image;verticalLabelPosition=bottom;labelBackgroundColor=default;verticalAlign=top;aspect=fixed;imageAspect=0;image=data:image/png,iVBORw0KGgoAAAANSUhEUgAAALEAAACZCAYAAABg1tueAAAAAXNSR0IArs4c6QAAAARnQU1BAACxjwv8YQUAAAAJcEhZcwAADsMAAA7DAcdvqGQAAAsXSURBVHhe7d1PbBNnGgbwJ1SgokoLQkjb00qkNlQjUKVKZAXpYXtIUOKLsxK57IFIi2K4kBxAq0i5bBUph3BIuKQOl+S2Sg54VSUW5MApVEqrXNa1SGwisZftMVCKOJR6v3/jv+OxB5uJP/P8pCH22J5x4ievPw/z5uspCCCyWM/169cZYrLS/fv31VcV4rt376orRLa4fft2McRH1L9EFmOIyXoMMVmPISbrMcRkvToh3sfi4EmcPFm9DGJx39xF2cSk5/rmbE5Wb7+0DKoNtrb9d7K/iEG5z8lNs6J1+vsM8Xv4wASsxNuY+tINWDcSv7w3prDdN4ud+QG9ZnFQ/VK1kumB+R3M9omf3Y1FsQdqtwYh7sPszgEODuQiXwi9dnvqnqiR0gDm1W2PcLNXrQhkYN7d9hrG1JoxrKnrB3ikNtja9gPbvIepbfEs7tyEu7tnu2JFy3pxZUT88LancK99BZ6MAJW4FzcfuWFbxrp6Mdy3+0kdaveteFBUnM1JVcGKb6PF60GqWju2727DLD4731xfFv+OIaaKsB5SXZWrhOWr4rFyv2XPYVENE6qem9qHuE0Nx0pDiN4rI6IkiO3oHxy1UcDhxGc4Z6pxNu/3xvgAN9xXXw5BbgxisHhdBsK88O+s2e3LAF8Vv3Jllq/WGQ7tI58VX/rOie+yCaKqTrkblgH+UgxDzFUsi9uqC3hvBI78ms1zSNFmAUNc4kR83t/FCzgihyE7s6r6FK8Xhw0tanL7+4tzOsBja2qI4t5/+8FDjyA9Q+XIQb7zHGDNbHBsTTz+UWmYURpqzeOzhw90gN39eH6fpQJA7RUwxO4L3YdzfuWqbwRX5KvtVh/xr1/mAwu6fVF91dt8ebWsETBk7nMo01f8oTCwYQoQ4rK3Zo8XsKMVK6RZKiqqqxcR+RuxvSt+Vd/N9q77yOqqLuw/xAO5zol47Jta0SDE+pCa/lDkji3F2+i3XiHoPO6HqWIlNku9z3YDMTkIcD+0Vip+sDPXy9Xup2ocLj3bVe8CY/pTI7VRsOGEPH4a1uGudui9iUfuuLkZA7fUYcTluVJYB2418Xixn2/d449C3+xa8XCkto/FORFr8fO7xQy3Hc8nruYeaZBDEPMfHoHJw33qaIk87j0PMQ7D1WX5QdCiAtDheD6xH1m95bg5UICrjkWbw319s7cgt6L/U4cBfl+KlTiVSplVRJ0tHo9XVOKKEMsbiTrViRMnsLKyUhNiyBAfHBwUlpeX1ddWtPp4onrcbLk5lbl1cUxM1mOIyXp1Q/zixYumF6LDFKgSv3z5Ejs7O3j8+LFa9vb28PbtW3Mr0eFoOsSvXr3C99//C0+e/A253Iha1tf/LoKcMfcIKJ1AIm0ue8gv9KN/IW+uGQ0eQx+mpkP8+vVr/PLLU3z99f/EEAL46ivg00//g59//q+5R3tFJrawNREx14jqazrER44cwUcffYzffjuKb74BLl4Efv/9OI4ePWbu0UB+Af09PegRS2U1TSPR04/qoluqunks9JvH8f9jyEPTIT59+jS++OI6nj79K3Z3P8Z3353EJ5/8U4T5L+Ye/vLrWYzmCigUCkgOmZUqwCnEC1uoV3TzC9eQndaPi2PJrCUqCfTBrre3F7/++mc8f/4Hs6Z5kYk7wDVRUfsXRG3VloZn4OSSKGbaQy4LOFF9eSg+ri8QlQkU4nI//vhHfP55P44da3I4gQgmtkRFXQHmzNhhfENcueYxlCgTdYBsTl9Op1iJqdY7h3hg4Dl++OHfePPmjVnjTx5tkOPanugqnJg7dpDBnkY2Wj1OLolMTAPDekycAisx1Qoc4gsXLuCnn/6EnZ1riMVu4Pjx4+YWf/JogxzXFtzx71DSjI2HkCxsFIOqFjnkqLjdjKWT7jqiksAhvnjxIi5fvoeRkX/g1KlTZm2rSkFVy9aEqNFEzakbYnnaW73l0qVLOHPmTPE60WF65zExUadgiMl6DDFZj+1JZA35+YvtSWQttidRV2OIyXoMMVmPISbrHU6I31ebEduXPkgdWInTSLScxHZsg2wRYog92ozKWpb0yfLyPsNYWhounjyfTpjbexIiml6qt1u7DepuoYXYs80oMoEtc+ZabnQVc2l5fvEGxsc39JlsYngw4+T0mW0bwIzH2fO1263ahr4bdbHQQuzdZiR77HQVjU4+MetK8nsZPJmM6ko87N3VwfYlCi3EXm1G+YUUHNM8mpu/rNaVi5w9j/ENfbtcvFr42b5EoYXYq80ochaYjFZX4iicjBnPDt2BM6Nvl4vXZzXv9qWybZg11MXsOndioyBiWhBPWy+X5ws5cwt1ty46d4JtTFTLshAT1WKIyXoMMVmPISbrsT2JrMH2JLJaFx1iI6rFEJP1GGKyHkNM1rMrxGG1H7HNySqsxGS90EKcTrjtRbJ9yJ3iII2ETxtS/dYkeTK994xL/WI/uuXJPKa8qrqX8wtILIhF3k/uX6yv2c+e2zpV2k/N8ynur/r5UZhCC3HUySClArSOrPiiTmTP7wGjMe82JK91igxw/RmXnmQcrIjH5ObN/urITGbFNnRbVDQVV/spf8zSKtR2ChvnMTknVtZ5Pnp//pPn0PsVWogjsVFkRELkVGDOyjRkWtTlWMSzDalea1KjGZcuy18K8VV2hfg5P39HbUN1j8T11sofMz5tTvMciqtT7es9H3d/dHjCGxNHYhhFCnNZB7HIEOKOuCyq3VmRAK82pHqtSc3MuFQts6fvHKR9acktyekUMk607vOhwxfiB7sIYmJIkXF05Yoig6XzcV1RvdqQ6rYmNZ5xqYKopOdNBQ0y+9K4uLfa9zAwLQPbRKsUHRJ7z51gq9KHpEvPnWCrEmkWh5hIY4jJegwxWY8hJuuxPYmswfYkslqXHmIj0hhish5DTNZjiMl6DDFZjyEm64UUYtmS5Lbw+LQk1cympO7EFiDyFVKII4iNuu1JPi1JNbMp6UezBYj8hDackO1J2Mv7tiSpKm0qcflsSmwBIj/hjYkjMTjZOdOeJK56tPs0mk2JyEuIH+wq25O82n28Z1Mi8hdiiPXEiaOyDCuyV65UiZNywDuULF4vX8emTPITUoj1/MvDmPb8WxFErQgpxKbqqtJK1F6hDieI3geGmKzHEJP12J5E1mB7ElmN7UnU1Rhish5DTNZjiMl6dodYnjAf5K9tU1eyMMRpJPgXrqlMeCFuOGORPkmoYl2xNcldJ+8zjKWl4VL7Unau7Hb6EIVaif1mLMovXMPqaL3Zidz7yROJNjA+vlH8o9rNzpZE3SvUEPvNWFRxrnHUMXOENZ4NqdnZkqh7dcyYWOZ2dd18SJOJdqL6MlEDHRPiyMQKRldN4+iMGCLUPXs+CidTNiYm4rkTZAOeO0FdjSEm6zHEZD2GmKzHEJP12J5E1mB7ElmNh9ioqzHEZD2GmKzHEJP1DifE6YT6e8RE7cBKTNYLMcSl9qNEyl1VPVuS9yxLRH5CC7FsP8pO678AH4eZaKZmtiSPWZb0PYnqCi3E5c0aQ/FxfUFWW1OJ3Tk6qmdZImoktBCXtc0hndKV2HO2pKpZlogaCS3EkYlpYFhX3RR0JfaeLalqliWiBkL8YDeEpBn/JpPJ+rMlCZWzLBH5CzHEzeAsSxRch4WYsyxRcB0WYqLgGGKyHkNM1mN7EllBtiZJDduTiDod25OoKzHEZD2GmKzHEJP1GGKyHkNM1mOIyXoMMVmPISbrMcRkPYaYrMcQk/UqzmIjskH1WWzFEBPZpCbE6hKRZYohludjqktEVgL+D+9RuQBXVmSnAAAAAElFTkSuQmCC;" vertex="1" parent="1">
          <mxGeometry x="80" y="360" width="177" height="153" as="geometry" />
        </mxCell>
        <mxCell id="G1eCkZ83PE1305hmKZL2-3" value="" style="shape=image;verticalLabelPosition=bottom;labelBackgroundColor=default;verticalAlign=top;aspect=fixed;imageAspect=0;image=data:image/png,iVBORw0KGgoAAAANSUhEUgAAAK8AAAD4CAYAAACaGbY6AAAAAXNSR0IArs4c6QAAAARnQU1BAACxjwv8YQUAAAAJcEhZcwAADsMAAA7DAcdvqGQAABDcSURBVHhe7Z1PaBxHFsafHRLWBDYmBDanhcijJAwOgYC1RMphc5CNNBdpwbrsQYZ1JPsS6SIWgy4bBD4oB8kXrXySbot88CzBI2wfcpIDStBllSGWZEH2sjk6f8khyWxVV1V3dXf1/JHGNXrd3w+ama7unu52f/P6Tet9fqcaAgKAIYF4P/jgAz0LAB9C8X788cd6CAAenNavALAD4gVsgXgBWyBewBaIF7CliXgPaeXiWTp7Nj5dXDnUy7vBQ5oNPndWvHvWmH1dpK6eguRwhS7Kz57t3lk8nH1Gx5ojvEbew5WLwRegi9f4BCC+5Ndu0PbATdpZGlYjXTjP4aUdujmwTTeurYg9ABdtiHeAbu48padP1fTgep8e75wnj7f1u14wTEvBOTygY5xCmoe36IY4rStz18l8bHfOs48ujQ8Qbd+gW7n6snePI0bedEoRjzLmFq2n2ZVg/ctraunaZTF20RFRzO1XLns4G26vUpVon+G+7PWDgcR+Y+mIK0VJHqdZkjWe5uE9eVJXqBIEXXWMqfO0jnMlSAf0MZjxYB/q38hOFfoujYvQIT7nXvb+i0wb4hW3rnf0P7CY1HV8QsngsnbZ/KPLC3+Z9PU7InfpmlGAYPvGLfGpOhIJzMU8vH9XHJ24N4xfEktd+12jy5n5dNZxOsbXLmfk+od0UBcvA2/QOTXQHBFFb5gPlsJ9R6QbepbWxLJkwO4rUVm+1g/SX3Rw1MhrbsFqunNFjm3T4yfymiyqCy9zQLPO0nW6/sCsJ+LUHTH2ILrNphAXcTxIVe6ImCap04G4eiYSqYt5SPfvBtKl8Ut9jv3KnFEOrJErcLmPczgav3JHje3cDPa5ffe+Q0DJL3Ffi/M0KdgSndNfvHA/4bnanKM31PcVOOg45w1+k9i3OzFZQTLM9+wcsGMGxknoUZC4eH2XKAi+23fp/qEWTriuQkVhSRSp61L5CVoep4i2wfnZ0TFFh+JKHKtk4A0TsyHUTjlS5H14S13QILKEEU5xTl+BZ5OnGUFu091rKkJGYlVsy/AfYCIzUbmUlmfL4wwjop6cd4o+Ksn7+vZjEYOPRnS86VRM5EUUnEK55P6CFZwjiTe88PIHydl3YrlaeGs3kUtOiR88mT/Y2sB8/va23KlKGYLx63Pqthvu1xyX+TEVJ+s4neNiyvrNNlyRe3WnJs3OM70fR/795LEKEq4TAEcTbygUiYhQJscL6LtOD3SemGT4Q/d4R5jUQRK7Dcs8PJk3XqE7Ir90Xvqs42xy/E6GPwzuPGuLkUjbOk+xn39at6yBm3didzB551hZFHIWOfmH0K4T1PN2A/kbQObGMtXQf6joGPloMPjxoL5wNCt/S8jfG11+Lp0jIN6e4X5UN3Bz51h/CCoSMfFWq1U9DMDJZmxsLC1eOQjASeWll16i9fV1pVMp3qtXrzaePn3aWFtbC16Pw3G3ByALoy2j0yP+hQ2A3gPxArY0Fe+3337b9gSAbzqOvN999x3t7OzQp59+Gkx7e3v066+/6qUA+KMj8f7www/02Wf/okeP/kr7++PBdO/e34SAd/UaHbI5TdOb+r2Dg+UhGlo+0HOaFtuA4tCReH/66Sf6/vuv6P33/ydSBaL33iN69dX/0Dff/Fev0V1KM1u0NVPScwDE6Ui8p0+fpuee+x398svz9NFHRBcuEP322xl6/vkX9BotOFimoVOn6JSY4tFzk6ZPDVEyyEZR9oCWh/R2+DsK0HQk3ldeeYXefvsqffXVX+jx49/RJ5+cpRdf/IcQ8Z/1Gs05uFenif2GfLZMqyN6MBBulcYaW5QVZA+WJ6k+r7Ybo9t6FBSdjn+w9fX10Y8//om+/vr3eqR9SjNzRJMigg4ti1iquD26QOX9VQq17GC/TlTuV+9HxqbUG1B4OhavzRdf/IHefHOIXnihzbSBSjSzJSLoOtGizhGmamJm0pEyWPSXier76v1mFZEXKI4l3uHhr+nzz/9NP//8sx5pjnx6IPPWU/0bVK6YHEEKep7q/ck8OKI0M080qnLeKiHyAsWRxPvWW2/Rl1/+kXZ2JqlSuUZnzpzRS5ojnx7IvLVh8tuRVZ37jtBqoxYKNJhkahFbrnPlVTMGis6RxHvhwgUaHLxF4+N/p5dfflmPHpdIoMG0NSNiMgDZNBWvLD/Lmt5991167bXXwnkAfHOsnBeAXgLxArZAvIAtsAEBVsjfV7ABAXbABgRyA8QL2ALxArZAvIAtXsXrtPV0wHG3B/nCq3iPa+uBLQjY+E0bjK1HvA5NiymoIJumzcDmI1+DlWg6KFaPrD9qHbWdKZvcnLaqz+x5sy7IPT3LeR/tlmm90aD9pV2qbpaoMiFfxYLNKu1OVIiWJ2ljYl9VmNWIFux0QYh4oayXyeozez65LsgtPRPvoBCoTABKr58P5kuVCaI9EW/3iCYqpcD6I18DbCuFYLO6Gy0THOzt0qPZfhV5R+G0KAo9E2+KUoXK9UVarJdJ6lLqdeOejqC2iU0QWyaQX4Cpmq4DFhPy4mJwcsQr4nClvEu7ZR2RZ9ZpYkNH0wWRYliCjC0LHBdzVF4wOW+2nQjkDBGpUNsAWIDaBpAbIF7AFogXsAXiBWyBeAFbYAMCrIANCLAEj8pAboB4AVsgXsAWiBewJTfihUWoeDAX7yZN6xKyyCIUjYF841m8Vlef6cgSFGrNvLe6BoX9K8SytHVolG7fHlXrBNvaY2I+ZS0CecKreNvu6lOaoS1dWL4/sUGLWtxJ69DMVo2mpmrWf0Rtj63SnLEWKXuGXgfkBa/ibb+rj2xvpSJv/+wjPZa2DrUitBbdq1s9MEBe8CrerK4+u0JgEjN2sFylsu7Xtr80GIwdiYS1COQLr+J1dvUZGaPz2jxpxkqvE832pyNvmn4q7+qcV4/Ex+LWIpAz5N+Ke1LbUJtqTNX0+2dIbWqwsbSvZwBrClTboJ5sjNJ8ZltYwJveiTfssfas0N020bQtt+Q48oK8A/ECtkC8gC2wAQFWwAYEWFKgR2Ug70C8gC0QL2ALxAvYcqLECysP6IQTJV50+wGd4Fe80qqzbCw+QxQE2dDeM02bxgYUDKuSSFPuiG4/IIn3yHt7gwIrT6N2nma1v0fZe1YpLKERIka3H9AK7+Kdmtd+s5ExU44e2nsM6PYD2sF/5A0ckQLZb83q8GODbj+gHfxHXqrqCEo0nyFCdPsB7eBdvDS2qiOoznFHVqNIGhao60Jyk/Pa82JCfTmQ+BcvAF3Cr3ifufUHFAlEXsAWiBewBeIFbIENCLACNiDAEtiAQG6AeAFbIF7AFogXsAXitQrgXTitSS22AX5gLF4/XX9gTTq5eBdv3N4TdQcK7T12VDPvxWurTkBquYiSrToAWZ2G4tqXfTC0NckmPJ7oWKerwRLQY/yKVwjBtvfQ8iRtTLRn72nVCUgt36L1Fh2AZHOVCd3vIioSksKt0pjYPivItt3JCHjDq3iT9h7ZHSict7utOGjVCShc3qIDUGlmjmhSRFArKt8eXaDyvuWhc9B+JyPgC6/iTdp7YvOWOpLdgTqiZQcgXdi+TrSoI/1UTcxMOlIGi6xORqB3eBVv0t5D9vyCuO3Le7ajO5AbVycgSfMOQPLpQbC//g0rMktBz1O9P9ti5OxkBHqLyOFyV9sQdQCqNYTMGvI0g2lwqdG8MVCn6wOf5Ly2IdkBaIRW5Y9BM4VtXrPodH3QS3ImXp3PwmtUCHImXlAkIF7AFogXsAU2IMAK2IAAS3L+qAwUCYgXsAXiBWyBeAFbeIk3LAzvMi0+F1agk0mOI2/3bEKwAp1M/IpXRqtm3YAsq03U9cdhv7GjnvU+shiJMdsmpBZHwAqUC7xH3mbdgPodtqC27TdCYJHFaJVWEzYhG1iB8oF38TbrBuSyBbVrv0lajJoBK1A+8B95m3QDctmCsuw3SatQbNuWwAqUB/xH3ibdgGI2IW0LctpvHFahVAehTJuQvP3DCpQLRP7mr7ahNtWYqun33oAVKC8UsLYBVqC84le86AYEukgBIi/IKxAvYAvEC9gCGxBgBWxAgCUFfFQG8grEC9gC8QK2QLyALRBvK+zCdwewCPUOBuLtnp3nWQCLUO/wLt5YNyA7Qpn3MYuOtN3Ydh6HTUisL61F09ZnxpYLwn2aMbFOZD1KAIsQG/yKV1xouxuQK17FLTqyxjay82R1D9qdrdOYGNuf2KD+6liwXHUNEgvtfVrbGOtRsk4IFiE+eBVvO1Ydl0XH4LIJSc4vzQUilJ2CpsaU4kzXoIO9XXqkC9dPjUaiMtajJLAI8cGreF1WnXTnn7RFxxDb3lZLEwJB11RElFPr/BQWIS54FW/KquOw86QtOpGdx9k9qBUjc1ReEOvLbcTU6rcfLEKMENGowLUNsAhxArUNMWAR4kzBxQs4A/ECtkC8gC0QL2ALbECAFbABAZbgURnIDRAvYAvEC9gC8QK2eBWv0zLTAcfdPiQsIAec8Sre41pm/FhuTrbtCET4TRtMxBOvyoYjSwilFUdaaIwlR4gnKAR3WH6siBmzE9nzLmtPgMOmY1l+1OfIdeJdhFp/LugVPct5lQ3H2HVKVJkwtp0q7U5UMi0/Aba1R1Z22fPJdTVOm05phrbkNmKSFqJFcRy27aidzwW9o2fiNTYcY9cpVSaI9kTs21NWnyzLjyRpJ8qy+ti4bTrSm6Yia//sIz0W0c7ngt7RM/GmKFWoXF+kxXqZpC6bWX6SdqJ2rD4um87BcpXK2my5vzQYjNl0biECPjk54hVxuFLepd2yjshNLD9pO1Frq4/LplN6nWi2X41FkdfqItShhQh4RkSUHNY2wK6TRwpS2wC7ThHIqXhBEYB4AVsgXsAWiBewBTYgwArYgABLCvKoDBQBiBewBeIFbIF4AVv8ilcWoR+lJrad7cQ6KJwpFoi8gC3+xVtftOw/gpQVJz4WRtPkdplEXXviFh6X1Qhwxrt44/YfMZCy4gjtOjrypLZzIoWru/bsJy08FFmNlF0DlWbM8S7epP1HCU5FSFMQ7urIk94ujd21x2XhCa1G4ssR9ZsAXOl5zuu24mR3BGqG3bXHaeFJWI0Ab3ouXpcVx92Rpx2srj3ksvDErUaAOSIqMaxtOLrNpzY12FiCJ4glOaltOIrNR/2nI6M0n9mCFfCCqXiPgs6jo4bCgDkFEi/IGxAvYAvEC9gCGxBgBWxAgCU5eVQGAHJewBiIF7AF4gVsyZ94YQcqDD0W72YHnXc6WTeLbnwGOCn4FW/M3pPovOOyA0njZdA1aIiGEl164qDTTxHxKt64vSfRecdhB5Io+88WbdnrqkUh6PRTTLyK12XviUjbgSTG/tMMdPopJp5z3mx7T6vOPM1Ap59i4jdtSNl7os475OzMY2N16dEjBnT6KSgi6jCrbUCnn6KSg9oGdPoBCobiBUAB8QK2QLyALRAvYAtsQIAVsAEBluTgURkACogXsAXiBWyBeAFbTr5427H1wPpTSAoQeWH9ySvexZuy3oRWH2sssOzoUkVj60kB60/R8SveDOtNstOP09aTANYf4FW8WdabZKcft60nDqw/wKt427XeuGw9SWD9AX7ThjatNy5bTxJYf4CMQAxqG2D9AWxrG2D9AWmYiBeANBAvYAvEC9gC8QK2wAYE2CAtQJJMGxAAJx3YgAB7IF7AFogXsAXiBWyBeAFbIF7AFogXsAXiBWyBeAFbIF7AFogXsAXiBWyBeAFbIF7AllQ9LwAckPW8MfECwAei/wOtVQDqO9mEogAAAABJRU5ErkJggg==;" vertex="1" parent="1">
          <mxGeometry x="338" y="160" width="175" height="248" as="geometry" />
        </mxCell>
        <mxCell id="G1eCkZ83PE1305hmKZL2-4" value="" style="shape=image;verticalLabelPosition=bottom;labelBackgroundColor=default;verticalAlign=top;aspect=fixed;imageAspect=0;image=data:image/png,iVBORw0KGgoAAAANSUhEUgAAAK8AAACtCAYAAADGWi9+AAAAAXNSR0IArs4c6QAAAARnQU1BAACxjwv8YQUAAAAJcEhZcwAADsMAAA7DAcdvqGQAAA1jSURBVHhe7Z1NaBxHFsefHGxiAhsTDJvTgpWRE4aYgMFaLOWwOUhGmou0YF32YMEaybpYOtgsAl02GHyQDyNfFPkk3RbpkFmCNNg65CQHlKDLTgZbMxZkL5uj8okPcWaruqr6s3q+JPfMa/1/0NFMdVfN9PS/X7/u1N+vpyYgABjSc/PmTYgXsMQR74MHD/RbAHhw584dOqVfA8AOiBewBeIFbIF4AVsgXsCWGPEe0PLwOTp3LrwM0/KB3sRhm+as7c1i+geX4fYGi8HsS7vf8Rg5WKZhuY9z27rh6GzPdcm+dYAWI+8uzV8+bnFF2Z2/TMd4fI+Ng+Vh5+Rq77uJk+jWPO3236e9/JBqOdJ4iqH8Ht3vF8fl1rL4hJNFA/H20/29Qzo8lIv8kVTr7vxDETMlQ5R31j2hmV6noU0macMZ55A2JlXL6mb3qffF8139qg22H9K86D55d4bMT3Wk8Vx66dq4ODC78/SwC0/410kLkbeXZp5sCJlJVklpy1z255SYzWVxWESB7TknqriXNPd9/Ujz3vv6DJH4xlt2Lo/6cyLphmnXmH5ymXusGzX+76gaLGlFaPw58flim+urau3qda+/umx7S9y+bW/KzpOUc4Ku+szIeHH7G9gf9V3837f32rgIM915wr9OWkwb3iOjrXLVPdIWPqdb5sjIVOPWMA277+XBConNhzUaiagy73aXwrouTh8/q3Tdf6Avi8uz0y5YFX1bCnC28WMQJ6Rvt+pwQNWy+NP/vvgFm8C/v83sT2+GsvJvuapPyJNBi+L1yGbq5Anixx2X6cbefSciuO8PTeQOI8WnIosSg0hXbqu8UGHSlzy9t7yohCVzx0A6o64GB48/Vwd6csNJQ+I/085BZHyx5GfEVcdLaSY3RNuTGVKKdFrctEensyFeUPCclFex6HjeL+rb36b2xwsqJ4kWxWsOQj+9Xy+E9I/TNXkkTEQQ/62n9SDywIVyaDOej/7xa/pg65xP4L8a9LtfsLUDayK/PzeNo3fmrhaSOfni7vpbFJdtf9vcnzTTgnh9l1PLj3s0vMjV7M3f7vMX+tUBPf5cCc5/NXDXHzwmvTrI7nNxKkqCUdHk3M3lj+aG1URRkSJZ75p6KSPPYvczW8fb33AUF5h9zGYannBpooF41aMxdTNi8kARGT9rHJVeF260W72uv9dlnQOqmyFz8+Ku9+eLEvdqYKLlIpV9kSzSXy6huzBzg7WtH3XJxeS+XoQMMpST39rc6Abx3wCGiX4fSz7+4rmzj5PqbvDE0Fra4OSBR30sdlRktAvnfTJy58UaQe8MfWae6Qn672+4j/gUQ3Tb1zC58RmN69cOov8Tk6uHGLptb3cReemTuB9n6LbzPVYXPZE2HE/ScH8OaHlRyFkcm8BtwgkA83mTxDw5kDdf9ju7xshHjk6YVyesyOVE1LfcJ6QczOdNGhnVZY7cknBDz5x1ftJ//7ZzpRnKN3+fkDbcyFsoFHQTAN3N2NiYE3kD4pWNAHQrb7/9Nq2trbniJSnew8PD2urqqvP3KBy1PwBxGG0ZnUrdIucFbIF4AVtixfvDDz80vQDQCVqKvD/++CPt7e3Rl19+6Sz7+/v06tUrvRaAZGlavD///DN99dW/6OnTv1GlMu4sm5t/FwIu6S1apDhN00X92kJ1aZAGl6r6naZBH3CyaFq8v/76K/300zP65JP/iVSB6OOPid599z/0/ff/1VscL5nZHdqZzeh3AERpWrynTp2iN954k3777TR9+inRlStEv/9+lk6fPqO3aEB1iQZ7eqhHLMHoWaTpnkEKB1kvylZpaVD3w/9HAT6aFu/58+fpo49u0rNnf6Xnz9+kL744R2+99U8h4r/oLepT3SzTRKVGtVqNVkZ0oyPcAo3VdiguyFaXblB5QfUbo0e6FYAWxCvp7e2lX375M3333R90S/NkZu8S3RARdHBJxFLFo9F7lK2skKtlC5UyUbZPvR4Zm1IvABC0JF4/33zzR/rgg0E6c6bJtIEyNLsjIuga0aLOEaa2xJsblpTBR1+WqFxRr4sFRF7g0bZ4h4a+o6+//je9fPlSt9RHPj2QeWtP3zplcyZHkIJeoHJfOA/2yMwuEI2qnLdAiLzAo2XxXrp0ib799k+0t3eDcrlbdPbsWb2mPvLpgcxbaya/HVnRue8IrdS2XIE6i0wtAut1rrxi2gBoQ7xXrlyhgYGHND7+D3rnnXd061HxBOosO7MiJgNQn1jxyulnccvVq1fpwoUL7nsAOkHbOS8AnQbiBWyBeAFbYAMCbJD3V7ABAXbABgRSBcQL2ALxArZAvIAtfMR7VAsQLESpo4PiLdI01ASOQHLiDdiApLVnlB49GtWT0z2rT0/PtJC1ojjtm2Wm2xzRa9tQcL1tDLuFyO3n+yzAj8TEG7QByXm8WzQ1teXMIKOlG7Q+UVEzyraI7ill0r2sbnNnmflsQ5XgetsYVguRf1zzWYAliYnXZgMySKvPhJmgrq0TxULJa9P4bUPh9bYxbBai6n6Jns71qcg7CmcGZxLMeaM2IIPU2vqmbtOKC7Rp/Lah8Pq4McIWoszFD8U4KhrLBfZ6viSXNkRsQH2ULamcl2bXaGJdR8N7WVoTgsr429xo7dmGFi8G19vHsFiIRu5S9p5qkwvuGRmDuQ2AA5jbAFIFxAvYAvECtkC8gC0QL2ALbECADbABAZbgURlIFRAvYAvEC9gC8QK2JCfe4rQ7GeY4J8RYqwZZaHY7wIdEI+9AXk8Cr1WcmV3HIeD6VYM8qxGqC6WPDqUNGZpdyxPtq0gYseVYKgcFLD8iig9Oi0Vub4yV8u+S6Sfn/IasRmY7m13IHc/XBrqejua8JTlTXAgnbMuJVA7yb6MtQU9LWVqrBYuxPFon0SbH+ZDmFisBq5GJudIaFLEcCdR4NarkS1SAelnQOfFqt4PNlhO2DNksQQMTOVeQhqkFLdKRsdjqFTa7kMSMJ50WgAcdEq/IRUeVIO22nKBlyGYJsvHIhMxigUrGvBbCZhcCPElUvG6E7ZFGSlNYJWrLCVuG7JagKFNUUNuMEi04g3tWI9MnMJa2CwGmpGZuw9ZUTURwkFIwtwGkivSI163bBk4KiLyALRAvYAvEC9gCGxBgA2xAgCV4VAZSBcQL2ALxArZAvIAtyYlXTvhux4bTTD+xjZm0Dk4OiLyALcmKt7wYtNr47D7utEWLBSjSLxZLpSCnj7T+mL5imzrTKgEfEhVvxGqTmaUdPQm9MrFOi6ItYgGy9bMSUynIsfoQ5SZ03+q+tFJEXBiAH4mKN2q1kYJTEbJv7qnTYqsa1IxFx18pyGotyk04hk95cqiaGIA7Hc15q0sFITgdefMDujW+alA9/JWCrNaiTI6yIv1YLGcJ2k0HHRVv5iLRXF8w8karBjWLVylommwVfzKUy5aolEXKkBr4zW3Yqk0R1cRXV8tAvlbRaxqxNTVQyze7MegqUjK3YYRWdDrgLL5/kyEe9Q+NjNKCMn2CVMBQvO2g82j4hFLFCREvSCMQL2ALxAvYAhsQYANsQIAlKXlUBoAC4gVsgXgBWyBewJZ0iRd2oBNFB8VbdCv1NKaVbeM4jjFAN5GceAP2nlClHpsdSBovnQo9gzTo39YZzI9X3We6YJrC44U+T2wSqUAE2JGYeIP2HjlRxlepx2IHkij7zw7tWKr6GGR1n/KC6jtGyjURtReFPk+cGOEKRIAfiYnXZu/xiNqBJLaKP2H8NVFGxkwNIPt4BptNCPAjwZw33t5jtwM1h68aFRULSoiNxrNXIALcSC5tiNh7vEo9ZLEDBYlW9TFkZheIRlXfgq6+ZrMXBcawVCACDOE1t6F9CxDgTQrmNrRjAQJphZl4AfCAeAFbIF7AFogXsAU2IMAG2IAAS1LwqAwAD4gXsAXiBWyBeAFbulu8zdh6YP05saQ88sL6k2YSFW/EeuNafXxtjmVHT1U0tp4IsP6AJMUbY70JV/qx2npCwPoDJImJN856E670Y7f1BIH1B0gSE2+z1hubrScMrD9Aklza0KT1xmbrCQPrD3Do/rkNsP4AtnMbYP0BdhiIFwA7EC9gC8QL2ALxArbABgTYABsQYAnTR2UA2IF4AVsgXsAWiBewJTHxyn+fd/A1zKF9XeOC7icx8WZmd45xGqJn7znecQEnkksbjFEyUBVIrQpgqwwkcC08g2Icv73HGVdafoy1Rwgbtp8TQeI5b7AqkG70Y6sM5Lfw7KzQSqQ6UIZyE8pGRMUClaQ7A7af1JO4eOtXBZJE7TzFQokmnDoW8WRyE0T7Varuk7MtbD/pJ3HxyigZVxVIYrPzSNvP+maDyJnJUba8SIvlLEmdw/aTfpJPGyJVgYLY7DyZ2TWaWNdR1InYtupAInXIlqiU1bXbYPtJP52d2wCLD2iOLpzbAIsPaJ8OixeA9oF4AVsgXsAWiBewBTYgwAJpAZLE2oAA6HZgAwKpAOIFbIF4AVsgXsAWiBewBeIFbIF4AVsgXsAWiBewBeIFbIF4AVsgXsAWiBewJTAlEgAOmCmRrngB4IQrXv0eAFb0yAm++jUAjCD6P85oFtjpMu9RAAAAAElFTkSuQmCC;" vertex="1" parent="1">
          <mxGeometry x="620" y="41" width="175" height="173" as="geometry" />
        </mxCell>
        <mxCell id="G1eCkZ83PE1305hmKZL2-5" value="" style="shape=image;verticalLabelPosition=bottom;labelBackgroundColor=default;verticalAlign=top;aspect=fixed;imageAspect=0;image=data:image/png,iVBORw0KGgoAAAANSUhEUgAAALAAAACYCAYAAABESGMFAAAAAXNSR0IArs4c6QAAAARnQU1BAACxjwv8YQUAAAAJcEhZcwAADsMAAA7DAcdvqGQAAAxYSURBVHhe7Z1PbBNXHsd/oQIVVVoQQtqeVsI4pbJAlZDIiriH7SFBxJdkJXzZA5EWCLkQX9AqEpetkDiEQ8IlhFNyWyUHvKqSiOTAKVRKq1zWtUhiIrGX7TFQinoozb6/45nx87+Ja/tnfz/SA/vNzJvxzHd+7zfD+/J6DgQEAFM8Ad+8eVNVAMCJgIAfPnyoKgHgwhHzNwAsgYABayBgwBoIGLAGAgasqSLgPZodPEknT4bLIM3umVUU65Rx1teLbadYBg/XIH/2ZmlQnovMuqk4POuZRlyr9iBiBN6kyYsNFpe6UNdo3nxtFHuzg+pGaOD1byIigNyepM2+B7Q1PaBrGvB7Bqa36EGfuIa3Z8UeeFOjgPvowdY+7e/LIn+8rt2cfCRipmSAptWyNRqPqYo6EZH3orhQ8qO8WKotWZZoRC2Pzqtt1SpP1h/RpDj80bvjZE9rY35PjK6MiIu4OUmPWN7YRSJE4BiNry3RqPo8T8vqBNiuP6MFbbu9QXGHr2dUxPC6LO+7L4qsL5vIO0pLa8WLJW+McXlH+NtT9Ta1KXaDulsslsy6XueaCenz1/zbh1MVc9ySeo9dEWrPLvS1NauOT++n9Fj16mHWl+XBj1JKBd8yv6fMPrx9y5IRy0LnK3ZlRIQl0Y6+gGyJmEKcpXMmCucL5ow4eUq37RmXacftQRr0vsuLoE/2XiGvK0ZTQrIREMLyNVsFKbZwqjJP1/wiVtR27M725q8F0ysR6SbtCjUf6x6p09J3TpztGvDvQ4rX9miSebEsHLhjcUrIv/MFc1PzJKKAiyTiFXIGcdJGZOqx9UDd7d53kRroCN4YvBtARnCTfkwPyJ5in5bMjkaXRL2I7jQ7pcXmpSo2JbK9iaHGY9+z7Y0uqf3a9TefPvMJw6Zg03TWeaymKsArCmYL7t9TPPu+fTx7qsVrj8l5votBiDMRBWxPbh+dqxQe+kboijzD9m4Xf7r0HovrpaI/C0XB2oiN3zUXSEbSYFdZjr6RK+bim3xQEOhNajx2DxF1VXftj3wW25ag9mOtU2C+fVj6vIvTGWJ1EUHAvi7TcdIicfacjnLyovoTQtEVZgJd8ba4dSTh6GQfIm2EEl1+laeTzW3dkuyqnz3VjVXsTarhRTtTAtHRT63HGiN1X3u/uX6KvzF8vgR7z0j97ES8zHHyoEYBi5N8UUYLWWy+J7qsx+UuUp3ExumxfbVhI5mJZqrD9aKgjVpTlPdFFPtqSRabXxajj8Y+9JCNgN5+Lpr80D4s1Yd9GAoctyjlHsxqOVbLQEoeaSi1MQQfSoOUHpPj9eSrbdVTjEb50W1EtBRC5Y9RX5m5iY2v0b5N8HzoqDhAd6zABaNLjyu/XhPRcM0c3MAdk8N6yAgYzgllPjod7QFS3HxrNk+Ogu9YSxi4o/Lz+amiUEt/jwN/QBD0PVjyXn1q9sSjgJC0uI53eOsX44HbHvtGQaYo7qe96sjXfyrc6xtV5IAi+suHvsYGoVYAAXckrleFMuBulY/2TCkRcDabVQsAaHeGh4fdApYLAGhXTpw4QQsLC1qnUsCSGzduHOzv7x/Mz8+rvw/DYbcHoBxWW1anh/6XOABaCQQMWFNVwG/evKm5ANBsIkXgt2/f0tbWFj1//lyVnZ0d+vDhg1kKQPOoW8Dv3r2jb7/9F7148Tfa3R1RZXn570LEObNGnayO0diq+eygMJOk5EzBfDNU2QZ0D3UL+P379/TTTy/pq6/+J9IGoi+/JPr00//Qjz/+16zRWOITG7QxETffAAhSt4CPHDlCH330Mf3661H6+muiS5eIfvvtOB09esysUYXCDCV7eqhHlGAUXaWxniSFg20x2hZoJmm2w7+1AEPdAj59+jR98cUNevnyr7S9/TF9881J+uSTfwoh/8WsUZnCcp7Suwfy/TPNXTWVSrxZGj7YoHLBtjBznfL39HbD9MTUgm4n0kNcLBajn3/+M71+/QdTUzvxibtE10UkTc6ImKp5MnSfErtz5OnZwW6eKNGrP18dvqU/gK4nkoD9fP/9H+nzz5N07FiNKQTFaWJDRNIFoimTL9xaEV+uO9IHH70Jovyu/ryaRQQGmkMLeGDgNX333b/pl19+MTWVkW8VZB7b07tIiZTNF6So71G+N5wXF4lP3CMa0jlwlhCBgSaygC9cuEA//PAn2tq6TqnUbTp+/LhZUhn5VkHmsQc23706Z3LhqzR3sOKJVBWZZgSWm9x5ztaBbieygC9dukT9/Y9oZOQfdOrUKVN7WIoiVWVjQsRmAMpTVcBy6Fq5cvnyZTpz5oz3HYBmc+gcGIBWAgED1kDAgDWwFAF2yOctWIoAS2ApAh0FBAxYAwED1kDAgDUQsAPYmPjARMCrNNZE9cDGxIeWCHh1zDfazB/Z7OeA7UhaiYboyZMhMwi+aC3q6RkT0tbrj82I4mszsFzg7dPWiXWSY6L41vHwjgk2pnan+QIW4rif2K042ixoO5JjhVfo1q0VtT7NXKfFtNl+hei+6epzmTwNi7rd9CL1ZofV8t3pHGWlEP379G3zIpeghYPyThDYmNqfpgt4NZujtDeQ3Y3LdmSR1iJve59N4/z0XSXE+Gfn6dawlqT8LCns5OhFpldH4KGiEPvTqYrDNWFjan+aLmCpucXloCxzO/p70SpUajuyBLb3K6wCStQrOpLKUmt+CxtT+9N0AccnFii9aKKhclwM03kTHa1VqNR21EuJnM6Byb/9fZEC1CLGq3cpcV+sL7cRpdbnQdiYGCAikqJ7x0KsHAhpygFNuvRPH+yaJaD9wFiIEmBj4gwEDFgDAQPWQMCANRAwYA0sRYAdsBQBtuA1GugoIGDAGggYsAYCBqxpvoDlQPJK/5N1OWrZzhuIDroFRGDAmtYIOD9lLENFS5C1EHmD2F2zGYW3K0txxqOglUhahOy2Yh3HgHnAi5YIWFt5fJaf+ARtmNFg0hI0JepcsxmVbOfEN+PRbthKRJRKm20LO9LagZFnzGmJgK2Vx1p+tOh0pOzNvFA1LltR6Xal+Gc8clmJ4qk00U5B3SDFOToAV9oiBy7MZIXoTASe7je15W1FlfDPeOS0EsVTlBCpyFQ+QdAvf9pCwPHPiDK9wQjsns2oFnwzHpHLShSnVCJHuQTSh45ARCYFv7EQ0a1AK7f6D6bhG2JJB42FiGIF0v9RyRDdKzulLeAFYwFHweTVmGSuY+gyAYNOAwIGrIGAAWtgKQLsgKUIsKWDXqMBgBwYMAcCBqyBgAFrOlPAsBZ1DW0g4HpmIKpn3XI0og3QLjRfwJVmIHJZi6SZU80mlKRkYLaiMI4ZhUraC+1PrFIyexFgRdMFXGkGorjDWiTRVqIN2vCvqxd5OGcUKmkvtD9xc7hmLwJ8aLqAK81ApLp3EzHtwHZJtdmEJO4ZhdztWcrNXgT40IIcuLxVyG0tqg3XjELV2os6exFoH5qfQlSagchhLQpSXDccvV0zCrmsSoE2Is5eBNoIEXkUvMZCYGahbqVDxkJgZiGgYSpgADQQMGANBAxYAwED1sBSBNgBSxFgS4e8RgNAAwED1kDAgDUQMGANDwHXYhGCjagr6ZIIDBtRp9ISAZfYeDzbkK9O2X/MMEdrESoBNqJup/kCLmPjCc9A5LQIhYCNCDRdwOVsPOEZiNwWoSCwEYGmC7hWG4/LIhQGNiLQ/BSiRhuPyyIUBjYiIKOQov3HQsBGBFiPhYCNCJTCSMAAlAIBA9ZAwIA1EDBgDSxFgB2wFAG2MH6NBkApEDBgDQQMWAMBA9Y0XcDy/wdO/g5jcH+vdkF703QBxyc2GjiEsWgVamy7gAvNTyGs+TIwW5FeFMA1Y5HAswMlRTt+q5BqV9qHrE1IiBsWoo6nZTlwcLYiU+nHNWOR3w60MUdzJbMWxSmV1pYkWs1STro8YCHqaFom4MqzFUlKrUGr2Ryl1bwa5Ymn0kQ7BSrskFoXFqLOpmUCltGy3GxFEpc1SFqIFperRNB4ihL5KZrKJ0hqHRaizqZ1KUTJbEVBXNag+MQCpRdNNFWR2zVrkUgjEjnKJczccrAQdTYiKilaOxYCdiFQG206FgJ2IRCNNhEwANGAgAFrIGDAGggYsAaWIsAKaSeSVLQUAdDuwFIEOgIIGLAGAgasgYABayBgwBoIGLAGAgasgYABayBgwBoIGLAGAgasgYABa5yj0QDggByNViJgADgREDAAvCD6P60RXTRIfZujAAAAAElFTkSuQmCC;" vertex="1" parent="1">
          <mxGeometry x="620" y="360" width="176" height="152" as="geometry" />
        </mxCell>
        <mxCell id="G1eCkZ83PE1305hmKZL2-13" value="" style="endArrow=none;html=1;rounded=0;exitX=1;exitY=0.25;exitDx=0;exitDy=0;entryX=0.011;entryY=0.444;entryDx=0;entryDy=0;entryPerimeter=0;" edge="1" parent="1" source="G1eCkZ83PE1305hmKZL2-1" target="G1eCkZ83PE1305hmKZL2-3">
          <mxGeometry width="50" height="50" relative="1" as="geometry">
            <mxPoint x="360" y="400" as="sourcePoint" />
            <mxPoint x="300" y="310" as="targetPoint" />
          </mxGeometry>
        </mxCell>
        <mxCell id="G1eCkZ83PE1305hmKZL2-14" value="" style="endArrow=none;html=1;rounded=0;exitX=1;exitY=0.25;exitDx=0;exitDy=0;entryX=0;entryY=0.69;entryDx=0;entryDy=0;entryPerimeter=0;" edge="1" parent="1" source="G1eCkZ83PE1305hmKZL2-2" target="G1eCkZ83PE1305hmKZL2-3">
          <mxGeometry width="50" height="50" relative="1" as="geometry">
            <mxPoint x="360" y="400" as="sourcePoint" />
            <mxPoint x="410" y="350" as="targetPoint" />
          </mxGeometry>
        </mxCell>
        <mxCell id="G1eCkZ83PE1305hmKZL2-15" value="" style="endArrow=none;html=1;rounded=0;entryX=0;entryY=0.25;entryDx=0;entryDy=0;exitX=1;exitY=0.5;exitDx=0;exitDy=0;" edge="1" parent="1" source="G1eCkZ83PE1305hmKZL2-3" target="G1eCkZ83PE1305hmKZL2-4">
          <mxGeometry width="50" height="50" relative="1" as="geometry">
            <mxPoint x="360" y="400" as="sourcePoint" />
            <mxPoint x="410" y="350" as="targetPoint" />
          </mxGeometry>
        </mxCell>
        <mxCell id="G1eCkZ83PE1305hmKZL2-16" value="" style="endArrow=none;html=1;rounded=0;entryX=0;entryY=0.25;entryDx=0;entryDy=0;exitX=0.983;exitY=0.577;exitDx=0;exitDy=0;exitPerimeter=0;" edge="1" parent="1" source="G1eCkZ83PE1305hmKZL2-3" target="G1eCkZ83PE1305hmKZL2-5">
          <mxGeometry width="50" height="50" relative="1" as="geometry">
            <mxPoint x="360" y="400" as="sourcePoint" />
            <mxPoint x="410" y="350" as="targetPoint" />
          </mxGeometry>
        </mxCell>
      </root>
    </mxGraphModel>
  </diagram>
</mxfile>
